<svg xmlns="http://www.w3.org/2000/svg" viewBox="32 32 44 44" width="130" height="130">
  <g transform="translate(24,24)">
    <path fill="#006874" d="M30,10C18.95,10 10,18.95 10,30s8.95,20 20,20 20,-8.95 20,-20S41.05,10 30,10zM30,46c-8.84,0 -16,-7.16 -16,-16s7.16,-16 16,-16 16,7.16 16,16 -7.16,16 -16,16z"/>
    <path fill="#006874" d="M30,18c-6.63,0 -12,5.37 -12,12s5.37,12 12,12 12,-5.37 12,-12 -5.37,-12 -12,-12zM30,38c-4.42,0 -8,-3.58 -8,-8s3.58,-8 8,-8 8,3.58 8,8 -3.58,8 -8,8z"/>
    <path fill="#006874" d="M30,26c-2.21,0 -4,1.79 -4,4s1.79,4 4,4 4,-1.79 4,-4 -1.79,-4 -4,-4z"/>
    <path fill="none" stroke="#006874" stroke-width="2" d="M30,14v4M30,42v4M14,30h4M42,30h4"/>
  </g>
</svg>
